<?xml version="1.0" encoding="UTF-8" standalone="no"?>
<svg
   width="48"
   height="24"
   viewBox="0 0 48 24"
   version="1.1"
   id="svg4"
   sodipodi:docname="icon-3.svg"
   inkscape:version="1.2.2 (b0a8486541, 2022-12-01)"
   xmlns:inkscape="http://www.inkscape.org/namespaces/inkscape"
   xmlns:sodipodi="http://sodipodi.sourceforge.net/DTD/sodipodi-0.dtd"
   xmlns="http://www.w3.org/2000/svg"
   xmlns:svg="http://www.w3.org/2000/svg">
  <defs
     id="defs8" />
  <sodipodi:namedview
     id="namedview6"
     pagecolor="#ffffff"
     bordercolor="#000000"
     borderopacity="0.25"
     inkscape:showpageshadow="2"
     inkscape:pageopacity="0.0"
     inkscape:pagecheckerboard="0"
     inkscape:deskcolor="#d1d1d1"
     showgrid="false"
     inkscape:zoom="34.75"
     inkscape:cx="12.014388"
     inkscape:cy="5.9856115"
     inkscape:window-width="1920"
     inkscape:window-height="1015"
     inkscape:window-x="0"
     inkscape:window-y="0"
     inkscape:window-maximized="1"
     inkscape:current-layer="svg4" />
  <path
     d="m 35.994,24 h -1.996 c 0,-3.104 0.12,-3.55 -1.76,-3.986 -2.876,-0.664 -5.594,-1.29 -6.586,-3.458 -0.36,-0.792 -0.602,-2.096 0.31,-3.814 2.042,-3.858 2.554,-7.166 1.404,-9.076 -1.344,-2.23 -5.414,-2.24 -6.77,0.034 -1.152,1.936 -0.632,5.226 1.426,9.024 0.93,1.712 0.696,3.02 0.336,3.816 -0.98,2.178 -3.672,2.8 -6.524,3.456 -1.964,0.454 -1.84,0.87 -1.84,4.004 h -1.99 L 12,22.754 c 0,-2.518 0.2,-3.97 3.176,-4.658 3.364,-0.778 6.688,-1.472 5.09,-4.418 C 15.534,4.948 18.914,0 23.996,0 c 4.984,0 8.454,4.766 3.734,13.678 -1.55,2.928 1.648,3.624 5.09,4.418 2.98,0.688 3.178,2.144 3.178,4.666 z m 9.62,-4.428 C 43.036,18.976 40.636,18.454 41.798,16.258 45.338,9.574 42.738,6 38.998,6 c -2.53,0 -4.496,1.634 -4.496,4.65 0,2.538 1.148,4.35 1.808,5.85 h 2.096 c -0.34,-1.5 -2.932,-5.124 -1.532,-7.472 0.824,-1.384 3.408,-1.386 4.228,-0.024 0.76,1.262 0.362,3.624 -1.068,6.322 -0.776,1.466 -0.56,2.602 -0.242,3.296 0.61,1.332 1.954,1.974 3.474,2.416 3.014,0.882 2.736,0.084 2.736,2.96 h 1.994 L 48,23.072 c 0,-1.89 -0.148,-2.984 -2.386,-3.5 z M 0.004,24 H 1.998 C 1.998,21.124 1.72,21.922 4.734,21.04 6.256,20.598 7.6,19.956 8.208,18.624 8.526,17.928 8.742,16.794 7.966,15.328 6.536,12.63 6.138,10.268 6.898,9.006 c 0.82,-1.364 3.404,-1.362 4.228,0.024 1.4,2.35 -1.192,5.972 -1.532,7.472 h 2.096 c 0.66,-1.5 1.808,-3.312 1.808,-5.85 C 13.5,7.634 11.534,6 9.004,6 5.264,6 2.664,9.574 6.204,16.258 7.366,18.456 4.966,18.976 2.388,19.572 0.148,20.088 0,21.182 0,23.074 Z"
     id="path2"
     style="stroke-width:1.99999" />
</svg>
