<svg width="48" height="48" fill-rule="evenodd" clip-rule="evenodd" xmlns="http://www.w3.org/2000/svg"><path d="M4 0v15.86l-4 3.176V48h48V19.036l-4.002-3.17V0Zm2 24.51V2.183h35.998v22.326L24 37.088Zm37.998 1.179v-6.917L46 20.44v25.38H2v-25.4l2-1.542.126 6.838 19.873 13.992zM15.39 10.957l-5.387 1.082 3.775 4.333-.722 5.926L18 19.72l4.946 2.58-.722-5.927L26 12.04l-5.39-1.082L18 5.7Zm.496 4.667-1.89-2.169 2.698-.543L18 10.281l1.308 2.631 2.698.543-1.89 2.169.36 2.967L18 17.301l-2.476 1.29Zm12.116-6.716h9.997V6.727h-9.997zm0 4.364h9.997V11.09h-9.997zm0 4.364h9.997v-2.182h-9.997zm0 4.363h6v-2.182h-6z" style="stroke-width:2.08888"/></svg>