<?xml version="1.0" encoding="UTF-8" standalone="no"?>
<svg
   width="48"
   height="48"
   viewBox="0 0 48 48"
   version="1.1"
   id="svg4"
   sodipodi:docname="icon-2.svg"
   inkscape:version="1.2.2 (b0a8486541, 2022-12-01)"
   xmlns:inkscape="http://www.inkscape.org/namespaces/inkscape"
   xmlns:sodipodi="http://sodipodi.sourceforge.net/DTD/sodipodi-0.dtd"
   xmlns="http://www.w3.org/2000/svg"
   xmlns:svg="http://www.w3.org/2000/svg">
  <defs
     id="defs8" />
  <sodipodi:namedview
     id="namedview6"
     pagecolor="#ffffff"
     bordercolor="#000000"
     borderopacity="0.25"
     inkscape:showpageshadow="2"
     inkscape:pageopacity="0.0"
     inkscape:pagecheckerboard="0"
     inkscape:deskcolor="#d1d1d1"
     showgrid="false"
     inkscape:zoom="6.1429902"
     inkscape:cx="-17.825195"
     inkscape:cy="28.162181"
     inkscape:window-width="1920"
     inkscape:window-height="1015"
     inkscape:window-x="0"
     inkscape:window-y="0"
     inkscape:window-maximized="1"
     inkscape:current-layer="svg4" />
  <path
     d="M 35.6088,37.626 C 29.832,37.626 26.7024,34.67 25.0416,32 H 38.088 L 41.1168,16 H 24.8376 c 1.56,-2.744 4.524,-5.826 10.0416,-5.826 3.792,0 7.1808,0.898 10.2888,1.636 L 48,2.15 C 44.6856,1.334 39.648,0 33.4464,0 19.0752,0 11.1504,7.922 8.1888,16 h -5.16 L 0,32 h 8.148 c 2.9712,8.08 11.1816,16 26.352,16 5.9904,0 10.164,-1.438 12.8688,-2.262 L 44.1312,35.97 c -2.7744,0.826 -5.1264,1.656 -8.5224,1.656 z M 34.5,44.014 C 22.9464,44.014 14.0808,38.38 12.0048,28 H 5.7552 l 0.3384,-2 h 5.592 c -0.1368,-1.38 -0.1152,-2.716 0.0168,-4 H 6.8448 l 0.3744,-2 h 4.8024 c 2.028,-9.422 9.8064,-16.014 21.4248,-16.014 2.7384,0 5.676,0.318 8.7624,0.946 l -0.5712,1.946 c -2.448,-0.464 -4.6752,-0.69 -6.7584,-0.69 -9.18,0 -14.9328,5.958 -16.476,13.812 h 17.0904 l -0.3744,2 H 18.1104 c -0.1248,1.338 -0.1128,2.674 0.0264,4 H 34.404 l -0.4128,2 h -15.54 c 1.7088,8.004 7.8624,13.614 17.1552,13.614 1.7112,0 3.4536,-0.18 5.2056,-0.536 l 0.7008,2.118 C 39.1896,43.74 36.8376,44.014 34.5,44.014 Z"
     id="path2"
     style="stroke-width:2.19089" />
</svg>
